<?xml version="1.0" standalone="no"?><!DOCTYPE svg PUBLIC "-//W3C//DTD SVG 1.1//EN" "http://www.w3.org/Graphics/SVG/1.1/DTD/svg11.dtd"><svg t="1603071618740" class="icon" viewBox="0 0 1093 1024" version="1.1" xmlns="http://www.w3.org/2000/svg" p-id="8738" xmlns:xlink="http://www.w3.org/1999/xlink" width="213.4765625" height="200"><defs><style type="text/css"></style></defs><path d="M949.527273 202.472727c-4.654545-4.654545-11.636364-6.981818-18.618182-6.981818H225.745455l-20.945455-116.363636c0-2.327273 0-2.327273-2.327273-2.327273 0-2.327273 0-2.327273-2.327272-4.654545L197.818182 69.818182c2.327273-2.327273 0-4.654545-2.327273-6.981818-4.654545-2.327273-6.981818-4.654545-13.963636-4.654546H93.090909c-13.963636 0-23.272727 9.309091-23.272727 23.272727s9.309091 23.272727 23.272727 23.272728h69.818182l102.4 567.854545c2.327273 11.636364 11.636364 18.618182 23.272727 18.618182h532.945455c13.963636 0 23.272727-9.309091 23.272727-23.272727s-9.309091-23.272727-23.272727-23.272728h-512l-72.145455-402.618181H907.636364l-32.581819 244.363636c-4.654545 37.236364-34.909091 62.836364-72.145454 62.836364H388.654545c-13.963636 0-23.272727 9.309091-23.272727 23.272727s9.309091 23.272727 23.272727 23.272727h411.927273c60.509091 0 111.709091-44.218182 118.690909-104.727273L954.181818 221.090909c0-6.981818-2.327273-13.963636-4.654545-18.618182zM346.763636 726.109091c-60.509091 0-109.381818 48.872727-109.381818 109.381818s48.872727 109.381818 109.381818 109.381818 109.381818-48.872727 109.381819-109.381818c-2.327273-60.509091-48.872727-109.381818-109.381819-109.381818z m0 169.890909c-34.909091 0-62.836364-27.927273-62.836363-62.836364 0-34.909091 27.927273-62.836364 62.836363-62.836363s62.836364 27.927273 62.836364 62.836363c-2.327273 34.909091-27.927273 62.836364-62.836364 62.836364zM774.981818 726.109091c-60.509091 0-109.381818 48.872727-109.381818 109.381818s48.872727 109.381818 109.381818 109.381818 109.381818-48.872727 109.381818-109.381818-48.872727-109.381818-109.381818-109.381818z m0 169.890909c-34.909091 0-62.836364-27.927273-62.836363-62.836364 0-34.909091 27.927273-62.836364 62.836363-62.836363s62.836364 27.927273 62.836364 62.836363c0 34.909091-27.927273 62.836364-62.836364 62.836364z" fill="#d4237a" p-id="8739"></path><path d="M574.836364 318.836364c0-13.963636-9.309091-23.272727-23.272728-23.272728h-211.781818c-13.963636 0-23.272727 9.309091-23.272727 23.272728s9.309091 23.272727 23.272727 23.272727h211.781818c13.963636 0 23.272727-9.309091 23.272728-23.272727z" fill="#d4237a" p-id="8740"></path></svg>