<?xml version="1.0" standalone="no"?><!DOCTYPE svg PUBLIC "-//W3C//DTD SVG 1.1//EN" "http://www.w3.org/Graphics/SVG/1.1/DTD/svg11.dtd"><svg t="1603071301508" class="icon" viewBox="0 0 1024 1024" version="1.1" xmlns="http://www.w3.org/2000/svg" p-id="2463" xmlns:xlink="http://www.w3.org/1999/xlink" width="200" height="200"><defs><style type="text/css"></style></defs><path d="M661.711232 904.503419c-17.927301-0.017396-31.66314-5.625114-40.826848-16.642029-13.570063-16.45681-16.740266-23.033599-16.740266-49.906643V625.709785c0-20.397562-1.836835-26.105564-5.223978-29.510104a9.081843 9.081843 0 0 0-2.354627-1.702782c-1.502213-0.751107-6.0416-2.50403-15.789615-2.50403H448.363146c-26.371624 0-34.583656 5.074575-34.583656 36.787858v208.6726c0 27.173896-2.955308 33.283034-16.724917 49.873897-9.181103 11.066033-22.917966 16.657378-40.876989 16.657378h-78.949097c-18.276249-0.434905-30.661324-4.7727-41.194214-14.471596-5.941316-5.257747-19.444864-20.013823-19.444865-45.917796 0-49.005111 0-99.69663 0.500397-149.252279 0-20.73116 0.13303-41.495066 0.25071-62.309114 0.13303-20.98187 0.267083-42.044582 0.267083-63.101153 0-5.057179-4.089132-9.154497-9.129938-9.154498-14.688537 0-29.892821 0-45.016263-0.509606h-2.336208c-28.007891-1.151219-36.219923-12.284791-36.219923-49.655933 0-32.087812 7.977695-42.578748 19.227924-53.879118 69.936839-69.710688 142.810566-139.104151 207.104895-200.327538 17.008372-16.032138 34.167171-32.489972 51.392483-49.006134 16.775059-16.089443 33.599236-32.246425 50.44081-48.137347 3.621481-3.63069 6.54302-6.567579 9.263991-8.846482 0.184195-0.150426 0.366344-0.309038 0.533142-0.467651 18.945491-18.526959 29.627784-28.399817 44.215014-30.662347h4.907777c14.604626 1.835811 25.320689 12.310374 42.946114 29.543873l1.134847 1.110288c2.821255 2.829442 6.092765 6.133697 9.881045 9.413393 32.933063 32.05609 66.932412 64.211441 101.765754 97.084129 74.376964 70.787206 141.308353 134.73975 207.105919 200.319352 10.933003 10.531867 19.194154 21.1149 19.194154 53.853535 0 36.920888-8.54563 48.52211-36.569894 49.665143l-1.669012-0.00921c-15.439644 0.509606-30.628578 0.509606-45.333488 0.509607-5.024433 0-9.113565 4.097318-9.113565 9.154497 0 42.887786 0 83.414805 0.517793 125.426641 0 25.018813 0.116657 50.03865 0.25071 74.991971 0.13303 24.77015 0.249687 49.506531 0.249687 74.242912 0 24.019043-12.234649 39.124066-19.528776 46.000683-10.515494 10.115382-22.633486 14.388708-40.609906 14.388709l-80.501452 0.521886zM581.292668 560.705282c48.821939 0 55.54813 31.721469 55.54813 66.040089v212.243938c0 16.190751 0.350994 18.661012 9.397021 29.043477 0.134053 0.165776 0.268106 0.300852 0.417509 0.434905 2.937912 2.970658 7.611352 4.222161 15.606443 4.222161h78.949096c8.612145 0 14.939247-1.101077 19.394722-6.460132 6.02625-5.674233 9.063423-13.118785 9.063423-22.132066 0-48.805566 0-99.263771-0.50142-149.436474 0-24.920576-0.13303-49.92404-0.249686-74.994018-0.134053-25.170263-0.267083-50.423413-0.267083-75.787081 0-8.728802 7.261381-16.09763 16.189727-16.423041h23.083741c15.272845 0 29.695323 0 44.114731-0.509606 4.907777-0.184195 8.797363-4.223185 8.797363-9.155521v-8.178263c0-19.10308-1.985214-23.174815-9.798157-31.028691-70.403466-70.170153-145.830343-141.959176-206.436676-199.634759-32.848129-30.986735-67.081815-63.818491-101.783151-97.619318l-9.580193-9.622149c-6.141884-6.166443-13.102413-13.160741-18.159591-17.116842a9.103332 9.103332 0 0 0-11.199063 0c-5.057179 3.956102-12.017708 10.9504-18.160615 17.126052l-9.680477 9.714246c-22.650883 22.057365-46.201252 44.532239-68.967768 66.264193-10.966773 10.465352-21.898753 20.896936-32.731472 31.271214-60.672848 57.743122-136.200008 129.632429-206.386534 199.602014-7.845689 7.870248-9.830903 11.941983-9.830903 31.045063v8.178263c0 4.932336 3.888564 8.972349 8.796341 9.155521 14.420431 0.509606 28.841885 0.509606 44.11473 0.509606h23.433712c8.880251 0 15.823384 7.209192 15.823383 16.423042 0 49.51574 0 100.724029-0.50142 150.781098 0 25.203008-0.13303 50.190099-0.25071 75.094302-0.13303 24.836665-0.267083 49.589418-0.267083 74.342172 0 9.212826 3.355421 17.058514 9.697873 22.700001 0.183172 0.166799 0.38374 0.333598 0.584308 0.484024 4.239558 3.221368 8.111748 4.857635 18.22713 5.391801l78.915328 0.017396c6.125511 0 9.765411-1.235131 11.401677-1.819439 1.769296-0.433882 3.388167-1.434675 4.623298-2.836604 9.04705-10.382465 9.380648-12.852726 9.380648-29.043477v-208.6726c0-47.494711 21.214161-69.611427 66.780962-69.611427H581.292668z" p-id="2464"></path></svg>